Coordinates
version=1
nRows=11
nColumns=36
inDegrees=yes

Units are S.I. units (second, meters, Newtons, ...)
If the header above contains a line with 'inDegrees', this indicates whether rotational values are in degrees (yes) or radians (no).

endheader
time	pelvis_tilt	pelvis_list	pelvis_rotation	pelvis_tx	pelvis_ty	pelvis_tz	hip_flexion_r	hip_adduction_r	hip_rotation_r	knee_angle_r	knee_angle_r_beta	ankle_angle_r	subtalar_angle_r	mtp_angle_r	hip_flexion_l	hip_adduction_l	hip_rotation_l	knee_angle_l	knee_angle_l_beta	ankle_angle_l	subtalar_angle_l	mtp_angle_l	lumbar_extension	lumbar_bending	lumbar_rotation	arm_flex_r	arm_add_r	arm_rot_r	elbow_flex_r	pro_sup_r	arm_flex_l	arm_add_l	arm_rot_l	elbow_flex_l	pro_sup_l
      0.00000000	     -4.51689365	      0.03030207	      0.23851520	     -0.13700955	      1.04434377	     -0.63082867	      0.71558568	     -3.26777790	    -12.69560220	      1.26235237	      0.02203221	      3.25981548	      4.80618457	     -5.04037185	      0.76183210	     -4.76767033	     -9.49009892	      1.55673089	      0.02717008	      4.11157722	      6.99005851	     -5.04037185	     -3.49452231	      0.98294633	     -1.48089438	     -5.66914248	     -3.35882625	    -11.67015832	     41.30290690	     99.31971723	    -10.13330179	     -1.63337861	    -16.18713240	     45.47285820	     92.60395560
      0.01000000	     -4.51231216	      0.03269864	      0.22894689	     -0.13697240	      1.04433231	     -0.63084533	      0.72512636	     -3.28597029	    -12.81877196	      1.29568996	      0.02261406	      3.37675521	      5.16346584	     -6.13035165	      0.77454365	     -4.77105826	     -9.61000409	      1.59827335	      0.02789513	      4.16504558	      7.14340945	     -6.13035165	     -3.53850782	      0.99866056	     -1.62059090	     -5.57520580	     -3.39415262	    -12.10392676	     40.85968367	    107.55736199	    -10.22242917	     -1.58706527	    -17.04970329	     44.76372556	    101.72779244
      0.02000000	     -4.50691648	      0.06185134	      0.24663612	     -0.13697190	      1.04434586	     -0.63089698	      0.71411546	     -3.32133705	    -12.84297323	      1.28838684	      0.02248659	      3.37073208	      5.16235201	     -6.64384068	      0.77198344	     -4.73083218	     -9.54843368	      1.60022905	      0.02792927	      4.17258929	      7.04832084	     -6.64384068	     -3.54154092	      0.94869223	     -1.69645639	     -5.48864575	     -3.40913968	    -11.93483945	     40.78043644	    107.44234595	    -10.23336254	     -1.55132390	    -17.22573305	     44.85023214	    101.57911250
      0.03000000	     -4.50162407	      0.05675001	      0.23613112	     -0.13697539	      1.04438035	     -0.63086005	      0.69900880	     -3.31293327	    -12.83280588	      1.26859528	      0.02214116	      3.39181121	      5.20987267	     -7.07564569	      0.78550662	     -4.74849200	     -9.63697823	      1.63072060	      0.02846144	      4.18388463	      7.19005256	     -7.07564569	     -3.53665762	      0.93581453	     -1.64305462	     -5.46110330	     -3.41984982	    -11.90854905	     40.73335242	    107.50055317	    -10.15812237	     -1.59918200	    -17.14275676	     44.76205922	    101.71208721
      0.04000000	     -4.52065957	      0.06253905	      0.21763940	     -0.13699057	      1.04437662	     -0.63084560	      0.73328296	     -3.32139750	    -12.85094991	      1.28951187	      0.02250623	      3.36165156	      5.15310441	     -7.26012125	      0.79781008	     -4.74213213	     -9.67547878	      1.60847473	      0.02807318	      4.15610999	      7.23167047	     -7.26012125	     -3.52759926	      0.92405364	     -1.69861679	     -5.34823856	     -3.48234580	    -11.66472480	     40.60618827	    107.54219497	    -10.16496365	     -1.62375279	    -17.10122202	     44.75785631	    101.46857700
      0.05000000	     -4.47422361	      0.04652015	      0.17813556	     -0.13708415	      1.04449435	     -0.63074870	      0.66532117	     -3.28033913	    -12.62837394	      1.22410171	      0.02136461	      3.19558485	      4.87281152	     -7.30812857	      0.75916567	     -4.76299938	     -9.70668487	      1.63851928	      0.02859756	      4.10406552	      7.19823749	     -7.30812857	     -3.59683977	      0.94762674	     -1.54683674	     -5.31929177	     -3.54394597	    -11.23076591	     40.77216835	    103.66050988	    -10.01765665	     -1.75003119	    -16.35955786	     44.95388333	     97.87338345
      0.06000000	     -4.51858659	      0.08423184	      0.26078344	     -0.13716436	      1.04446083	     -0.63093374	      0.71510178	     -3.34532609	    -12.85876704	      1.23872605	      0.02161985	      3.28858419	      5.19256786	     -7.34697490	      0.84961410	     -4.70949401	     -9.45176735	      1.69389919	      0.02956412	      4.04530486	      6.94132169	     -7.34697490	     -3.57543006	      0.91873874	     -1.60488740	     -5.24539390	     -3.61571895	    -11.35195661	     40.51161357	    107.06822622	     -9.94921843	     -1.82807042	    -16.49490180	     44.61258468	    101.49899075
      0.07000000	     -4.43437907	      0.03488731	      0.17411838	     -0.13728345	      1.04458527	     -0.63076555	      0.63144495	     -3.27535912	    -12.66873847	      1.21630053	      0.02122845	      3.30003492	      5.10203766	     -7.40525528	      0.80292777	     -4.78253287	     -9.71325579	      1.76972315	      0.03088750	      4.08509399	      7.12512741	     -7.40525528	     -3.73449281	      1.00947834	     -1.63772229	     -5.08782842	     -3.72836703	    -10.91467149	     40.49796210	    107.22108765	     -9.87015171	     -1.93296111	    -16.36231441	     44.51270416	    101.49824928
      0.08000000	     -4.42268438	      0.03563908	      0.20200901	     -0.13754101	      1.04463567	     -0.63076659	      0.64288352	     -3.27397695	    -12.70677352	      1.23478690	      0.02155110	      3.23991399	      5.07297222	     -7.43348030	      0.84739225	     -4.78748285	     -9.52742665	      1.83527572	      0.03203160	      4.04269073	      6.87615847	     -7.43348030	     -3.80575701	      1.01563958	     -1.63161914	     -4.93025871	     -3.82685073	    -10.67329981	     40.35452022	    107.48211269	     -9.68630262	     -2.07558353	    -15.99824601	     44.34642219	    101.49978410
      0.09000000	     -4.36916606	      0.06079012	      0.21967525	     -0.13788553	      1.04476581	     -0.63081264	      0.61218667	     -3.30392341	    -12.74513159	      1.24706863	      0.02176545	      3.25721430	      5.10577119	     -7.45669148	      0.87217872	     -4.76123792	     -9.34601120	      1.93545473	      0.03378006	      3.95467189	      6.57657877	     -7.45669148	     -3.92820085	      0.99480190	     -1.69823873	     -4.65303020	     -3.96173050	    -10.19757070	     40.09795142	    107.60490802	     -9.49604871	     -2.22004946	    -15.53017766	     44.25697784	    100.45511923
      0.10000000	     -4.28761758	      0.05339858	      0.21668229	     -0.13830215	      1.04494166	     -0.63079426	      0.54353117	     -3.28995713	    -12.65151428	      1.22829732	      0.02143783	      3.18762429	      4.98896816	     -7.47069212	      0.92967141	     -4.79360825	     -9.43447477	      2.15692353	      0.03764542	      4.02316808	      6.62576571	     -7.47069212	     -4.10249588	      0.99796003	     -1.75633803	     -4.30358994	     -4.13561269	     -9.53878790	     39.79031017	    107.15396478	     -9.31394059	     -2.33220745	    -15.36323910	     44.27036277	     99.83843750
